<svg height="512" viewBox="0 0 64 64" width="512" xmlns="http://www.w3.org/2000/svg" xmlns:xlink="http://www.w3.org/1999/xlink"><linearGradient id="New_Gradient_Swatch_3" gradientUnits="userSpaceOnUse" x1="18" x2="18" y1="62.154" y2="-2.2"><stop offset="0" stop-color="#006df0"/><stop offset="1" stop-color="#00e7f0"/></linearGradient><linearGradient id="New_Gradient_Swatch_3-2" x1="22" x2="22" xlink:href="#New_Gradient_Swatch_3" y1="62.154" y2="-2.2"/><linearGradient id="New_Gradient_Swatch_3-3" x1="26" x2="26" xlink:href="#New_Gradient_Swatch_3" y1="62.154" y2="-2.2"/><linearGradient id="New_Gradient_Swatch_3-4" x1="34" x2="34" xlink:href="#New_Gradient_Swatch_3" y1="62.154" y2="-2.2"/><linearGradient id="New_Gradient_Swatch_3-5" x1="30" x2="30" xlink:href="#New_Gradient_Swatch_3" y1="62.154" y2="-2.2"/><linearGradient id="New_Gradient_Swatch_3-16" x1="42" x2="42" xlink:href="#New_Gradient_Swatch_3" y1="62.154" y2="-2.2"/><linearGradient id="New_Gradient_Swatch_3-19" x1="32" x2="32" xlink:href="#New_Gradient_Swatch_3" y1="62.154" y2="-2.2"/><g id="Could_server" data-name="Could server"><path d="m17 22h2v4h-2z" fill="url(#New_Gradient_Swatch_3)"/><path d="m21 22h2v4h-2z" fill="url(#New_Gradient_Swatch_3-2)"/><path d="m25 22h2v4h-2z" fill="url(#New_Gradient_Swatch_3-3)"/><path d="m33 22h2v4h-2z" fill="url(#New_Gradient_Swatch_3-4)"/><path d="m29 22h2v4h-2z" fill="url(#New_Gradient_Swatch_3-5)"/><path d="m21 36h2v4h-2z" fill="url(#New_Gradient_Swatch_3-2)"/><path d="m17 36h2v4h-2z" fill="url(#New_Gradient_Swatch_3)"/><path d="m25 36h2v4h-2z" fill="url(#New_Gradient_Swatch_3-3)"/><path d="m29 36h2v4h-2z" fill="url(#New_Gradient_Swatch_3-5)"/><path d="m33 36h2v4h-2z" fill="url(#New_Gradient_Swatch_3-4)"/><path d="m17 50h2v4h-2z" fill="url(#New_Gradient_Swatch_3)"/><path d="m21 50h2v4h-2z" fill="url(#New_Gradient_Swatch_3-2)"/><path d="m25 50h2v4h-2z" fill="url(#New_Gradient_Swatch_3-3)"/><path d="m29 50h2v4h-2z" fill="url(#New_Gradient_Swatch_3-5)"/><path d="m33 50h2v4h-2z" fill="url(#New_Gradient_Swatch_3-4)"/><g fill="url(#New_Gradient_Swatch_3-16)"><path d="m47 22a1 1 0 0 0 -1-1h-8a1 1 0 0 0 -1 1v4a1 1 0 0 0 1 1h8a1 1 0 0 0 1-1zm-2 3h-6v-2h6z"/><path d="m46 35h-8a1 1 0 0 0 -1 1v4a1 1 0 0 0 1 1h8a1 1 0 0 0 1-1v-4a1 1 0 0 0 -1-1zm-1 4h-6v-2h6z"/><path d="m38 55h8a1 1 0 0 0 1-1v-4a1 1 0 0 0 -1-1h-8a1 1 0 0 0 -1 1v4a1 1 0 0 0 1 1zm1-4h6v2h-6z"/></g><path d="m55 19.1c0-.032 0-.063 0-.095a7.014 7.014 0 0 0 -8.78-6.774 15 15 0 0 0 -28.44 0 7.014 7.014 0 0 0 -8.78 6.769v.095a11.989 11.989 0 0 0 4.17 22.863 3 3 0 0 0 2.83 2.042h1v2h-1a3 3 0 0 0 -3 3v6a3 3 0 0 0 3 3h1v3a1 1 0 0 0 1 1h28a1 1 0 0 0 1-1v-3h1a3 3 0 0 0 3-3v-6a3 3 0 0 0 -3-3h-1v-2h1a2.992 2.992 0 0 0 2.828-2.041c.086-.006.175-.005.261-.013a11.994 11.994 0 0 0 3.911-22.846zm-10 40.9h-26v-2h26zm3-12a1 1 0 0 1 1 1v6a1 1 0 0 1 -1 1h-32a1 1 0 0 1 -1-1v-6a1 1 0 0 1 1-1zm-3-2h-26v-2h26zm3-4h-32a1 1 0 0 1 -1-1v-6a1 1 0 0 1 1-1h32a1 1 0 0 1 1 1v6a1 1 0 0 1 -1 1zm-29-12h26v2h-26zm-3-2a1 1 0 0 1 -1-1v-6a1 1 0 0 1 1-1h32a1 1 0 0 1 1 1v6a1 1 0 0 1 -1 1zm35 11.942v-4.942a3 3 0 0 0 -3-3h-1v-2h1a3 3 0 0 0 3-3v-6a3 3 0 0 0 -3-3h-32a3 3 0 0 0 -3 3v6a3 3 0 0 0 3 3h1v2h-1a3 3 0 0 0 -3 3v4.949a10 10 0 0 1 -2.6-19.274 1 1 0 0 0 .637-1.06 4.97 4.97 0 0 1 4.963-5.615 4.8 4.8 0 0 1 2.023.429 1 1 0 0 0 1.386-.661 13 13 0 0 1 25.182 0 1 1 0 0 0 1.386.661 4.8 4.8 0 0 1 2.023-.429 4.97 4.97 0 0 1 4.958 5.615 1 1 0 0 0 .637 1.06 9.991 9.991 0 0 1 -2.595 19.267z" fill="url(#New_Gradient_Swatch_3-19)"/></g></svg>